HIERARCHY
ROOT Hips
{
	OFFSET -3.958830 18.904000 13.208200
	CHANNELS 6 Xposition Yposition Zposition Zrotation Yrotation Xrotation 
	JOINT LHipJoint
	{
		OFFSET 0.000000 0.000000 0.000000
		CHANNELS 3 Zrotation Yrotation Xrotation
		JOINT LeftUpLeg
		{
			OFFSET 1.800000 -1.400000 0.085000
			CHANNELS 3 Zrotation Yrotation Xrotation
			JOINT LeftLeg
			{
				OFFSET 2.215000 -6.000000 0.000000
				CHANNELS 3 Zrotation Yrotation Xrotation
				JOINT LeftFoot
				{
					OFFSET 2.500000 -6.900000 0.000000
					CHANNELS 3 Zrotation Yrotation Xrotation
					JOINT LeftToeBase
					{
						OFFSET 0.200000 -0.500000 1.950000
						CHANNELS 3 Zrotation Yrotation Xrotation
						End Site
						{
							OFFSET 0.000000 0.000000 0.000000
						}
					}
				}
			}
		}
	}
	JOINT RHipJoint
	{
		OFFSET 0.000000 0.000000 0.000000
		CHANNELS 3 Zrotation Yrotation Xrotation
		JOINT RightUpLeg
		{
			OFFSET -1.800000 -1.400000 0.085000
			CHANNELS 3 Zrotation Yrotation Xrotation
			JOINT RightLeg
			{
				OFFSET -2.215000 -6.000000 0.000000
				CHANNELS 3 Zrotation Yrotation Xrotation
				JOINT RightFoot
				{
					OFFSET -2.500000 -6.900000 0.000000
					CHANNELS 3 Zrotation Yrotation Xrotation
					JOINT RightToeBase
					{
						OFFSET -0.200000 -0.500000 1.950000
						CHANNELS 3 Zrotation Yrotation Xrotation
						End Site
						{
							OFFSET 0.000000 0.000000 0.000000
						}
					}
				}
			}
		}
	}
	JOINT LowerBack
	{
		OFFSET 0.000000 0.000000 0.000000
		CHANNELS 3 Zrotation Yrotation Xrotation
		JOINT Spine
		{
			OFFSET -0.087000 1.940000 -0.288900
			CHANNELS 3 Zrotation Yrotation Xrotation
			JOINT Spine1
			{
				OFFSET 0.000000 1.950000 0.060000
				CHANNELS 3 Zrotation Yrotation Xrotation
				JOINT Neck
				{
					OFFSET 0.000000 0.000000 0.000000
					CHANNELS 3 Zrotation Yrotation Xrotation
					JOINT Neck1
					{
						OFFSET 0.000000 1.600000 0.340000
						CHANNELS 3 Zrotation Yrotation Xrotation
						JOINT Head
						{
							OFFSET 0.000000 1.667000 -0.240000
							CHANNELS 3 Zrotation Yrotation Xrotation
							End Site
							{
								OFFSET 0.000000 0.000000 0.000000
							}
						}
					}
				}
				JOINT LeftShoulder
				{
					OFFSET 0.000000 0.000000 0.000000
					CHANNELS 3 Zrotation Yrotation Xrotation
					JOINT LeftArm
					{
						OFFSET 2.700000 1.550000 -0.730000
						CHANNELS 3 Zrotation Yrotation Xrotation
						JOINT LeftForeArm
						{
							OFFSET 5.450000 0.000000 0.000000
							CHANNELS 3 Zrotation Yrotation Xrotation
							JOINT LeftHand
							{
								OFFSET 3.450000 0.000000 0.000000
								CHANNELS 3 Zrotation Yrotation Xrotation
								JOINT LeftHandIndex1
								{
									OFFSET 0.750000 0.000000 0.000000
									CHANNELS 3 Zrotation Yrotation Xrotation
									End Site
									{
										OFFSET 0.000000 0.000000 0.000000
									}
								}
							}
						}
					}
				}
				JOINT RightShoulder
				{
					OFFSET 0.000000 0.000000 0.000000
					CHANNELS 3 Zrotation Yrotation Xrotation
					JOINT RightArm
					{
						OFFSET -2.700000 1.550000 -0.730000
						CHANNELS 3 Zrotation Yrotation Xrotation
						JOINT RightForeArm
						{
							OFFSET -5.450000 0.000000 0.000000
							CHANNELS 3 Zrotation Yrotation Xrotation
							JOINT RightHand
							{
								OFFSET -3.450000 0.000000 0.000000
								CHANNELS 3 Zrotation Yrotation Xrotation
								JOINT RightHandIndex1
								{
									OFFSET -0.750000 0.000000 0.000000
									CHANNELS 3 Zrotation Yrotation Xrotation
									End Site
									{
										OFFSET 0.000000 0.000000 0.000000
									}
								}
							}
						}
					}
				}
			}
		}
	}
}
MOTION
Frames: 12
Frame Time: 0.016667
-1.216860 16.643220 -5.060360 -16.054163 -15.892422 -33.086886 -16.299718 16.256893 1.887552 1.251221 3.085676 -15.168355 21.215002 2.174389 59.108478 1.488613 10.424442 1.237537 -0.204970 -0.399680 -0.072860 17.400663 -7.983739 3.273747 7.612322 4.225182 14.987763 22.527499 -14.350005 34.422740 -1.124682 -8.717607 1.583846 -0.175030 0.506810 0.179830 -0.149180 -12.501524 -8.490423 12.770810 -0.615311 75.631180 -17.980175 26.515430 -18.240657 3.928507 5.685916 -21.476160 6.941595 -1.266911 24.907978 -5.985640 2.049160 8.543100 30.051732 12.709091 -9.545341 45.393564 11.027546 6.340554 17.832242 -9.962424 1.047088 -5.966544 3.829930 -0.263260 0.498220 -0.456160 -0.005700 -36.889341 2.278569 12.738111 -32.870929 -12.157052 -1.801780 -20.881273 -17.603815 -0.070308 3.316929 -1.176714 -0.128430 -0.082630 0.147460 -0.008050 
-1.243760 16.618540 -5.044160 -15.447766 -15.521464 -33.636728 -16.288968 16.205051 1.887337 1.091779 3.127134 -14.765305 20.929436 2.494102 59.884937 1.541034 10.537199 1.217659 -0.182500 -0.378190 -0.057200 17.410212 -8.007123 3.265055 6.678764 4.794124 15.107937 24.131739 -15.154467 35.038424 -1.202939 -8.961604 1.507450 -0.171110 0.494120 0.185540 -0.205323 -12.347631 -8.502336 12.159687 -0.459115 75.507595 -17.061006 25.870228 -17.591488 4.122117 5.591055 -21.162532 6.744580 -1.132810 25.075894 -6.033570 2.279210 8.460790 29.758992 12.731717 -9.220464 45.255389 12.063214 6.155476 18.900393 -9.380791 1.042144 -5.989352 3.790323 -0.250580 0.485900 -0.436000 0.013050 -36.955519 2.679909 12.806688 -32.772328 -12.245310 -2.059359 -20.813972 -18.089721 -0.074510 3.341124 -1.175122 -0.120290 -0.088200 0.121980 -0.005590 
-1.264100 16.604160 -5.025890 -14.791039 -15.162370 -34.174628 -16.298040 16.192766 1.883750 0.682825 3.215628 -14.195198 21.296992 2.433939 60.247820 1.555529 10.630742 1.191331 -0.181210 -0.386190 -0.041000 17.406001 -7.999376 3.236755 5.815147 5.313210 15.163784 25.241705 -15.812843 35.746014 -1.248857 -9.162879 1.433831 -0.167620 0.482060 0.181400 -0.202298 -12.366227 -8.529277 11.404884 -0.131920 75.470456 -16.195249 25.560394 -17.142585 4.316180 5.421775 -20.984997 6.375241 -0.979985 25.146151 -6.363880 2.528740 8.274730 29.447990 12.938612 -8.951670 44.774427 12.631228 5.780645 20.100880 -8.892008 1.032459 -6.060816 3.732785 -0.234370 0.479070 -0.433330 0.003380 -36.960263 2.870640 12.866653 -32.638240 -12.137771 -2.309059 -21.377017 -18.347018 0.034392 3.372431 -1.181722 -0.133210 -0.087610 0.123930 -0.021490 
-1.276890 16.586860 -5.019430 -14.598287 -15.334056 -34.952841 -16.279308 16.199035 1.830415 1.209068 3.492644 -13.506315 21.456626 2.536223 60.590673 1.513680 10.754117 1.141641 -0.197240 -0.413430 -0.053570 17.418437 -8.033151 3.263310 5.661920 5.658870 15.447911 25.545418 -16.292198 36.824771 -1.269681 -9.371380 1.365033 -0.147850 0.502880 0.164760 -0.235769 -12.316579 -8.506153 12.166018 -0.523969 75.685393 -15.992635 24.468615 -15.801927 4.472116 5.144429 -20.487931 5.958969 -0.329630 24.791195 -6.155630 2.753340 8.071630 29.161580 13.528518 -8.909400 43.990094 12.970393 5.089200 22.036174 -8.364913 1.006315 -6.250106 3.661913 -0.223880 0.495110 -0.469110 -0.016220 -37.224227 2.788654 12.795306 -32.317526 -11.154754 -2.981374 -22.165160 -19.535933 0.157376 3.397905 -1.164153 -0.176800 -0.065910 0.159320 -0.045190 
-1.285620 16.570360 -5.016250 -14.375032 -15.818997 -36.031993 -16.210860 16.217440 1.796354 1.992459 3.822770 -12.479477 21.602343 2.651695 60.763825 1.502651 10.867556 1.127090 -0.257060 -0.510130 -0.087110 17.454650 -8.131537 3.339285 5.568366 5.752290 16.144307 25.213049 -16.551576 37.779997 -1.276442 -9.528324 1.338316 -0.188190 0.551080 0.153170 -0.414574 -11.846417 -8.401504 13.925630 -1.825347 76.221753 -16.992849 22.661717 -14.654100 4.437849 4.800468 -20.060825 5.383564 -0.339574 25.048284 -5.934900 2.312070 8.741790 28.995497 12.621482 -8.182820 43.988526 14.285958 5.461141 21.675253 -7.941789 0.944382 -6.217134 3.551909 -0.206330 0.518200 -0.515730 -0.036600 -37.403098 4.026455 13.157463 -32.026419 -11.930061 -3.756418 -22.705382 -20.140717 0.356128 3.531434 -1.080515 -0.222090 -0.040450 0.210260 -0.061340 
-1.296200 16.562460 -5.003210 -14.513144 -15.975966 -36.127889 -16.216447 16.260670 1.779179 2.506848 3.830149 -12.420268 21.826104 2.515826 60.747113 1.477191 10.954340 1.114369 -0.339330 -0.623520 -0.146210 17.447685 -8.104571 3.354780 5.777732 5.689886 16.300169 25.085417 -16.646129 38.053589 -1.238444 -9.595195 1.327088 -0.229170 0.619300 0.153990 -0.393969 -11.912840 -8.394431 14.680280 -2.395712 76.323126 -17.791600 22.499811 -14.647662 4.260771 4.939687 -20.321357 5.498185 -0.190072 24.977111 -5.893420 2.144090 10.071190 29.128299 12.710082 -7.964720 43.203161 14.217382 5.067234 21.639097 -7.641217 0.893826 -6.338809 3.492899 -0.217100 0.565980 -0.580290 -0.059940 -37.387746 3.903305 13.541795 -31.275176 -12.004385 -3.911246 -24.081242 -20.088415 0.671649 3.609003 -1.080074 -0.268620 -0.029840 0.275530 -0.068700 
-1.312450 16.557860 -4.988580 -14.219574 -15.940439 -35.957158 -16.238569 16.267835 1.793835 2.531964 3.734572 -12.721526 21.615751 2.668072 61.219066 1.487334 11.062081 1.087380 -0.381050 -0.693800 -0.166370 17.433649 -8.069484 3.320110 5.603648 5.730750 16.216788 25.070118 -16.746241 38.256790 -1.221617 -9.628941 1.311320 -0.262940 0.641180 0.165970 -0.339115 -12.013440 -8.428507 14.054588 -1.894270 75.941264 -17.645757 23.196545 -14.843905 4.104946 5.239927 -20.884867 5.860357 -0.500596 25.063488 -6.035060 1.875490 10.922630 29.459922 12.841844 -7.627084 42.327357 14.039690 4.411977 21.843899 -7.136664 0.844528 -6.413712 3.456260 -0.213880 0.580870 -0.602410 -0.073290 -37.282424 3.649038 14.040153 -30.333090 -12.623506 -3.679623 -25.342158 -19.249444 0.959085 3.686137 -1.113087 -0.285140 -0.040200 0.305600 -0.075160 
-1.337330 16.544660 -4.986750 -13.684396 -15.538847 -36.556853 -16.201202 16.190157 1.820502 2.219507 3.642932 -12.403153 21.663540 2.659523 61.781413 1.470246 11.170679 1.043852 -0.379660 -0.702220 -0.149520 17.458364 -8.164572 3.320875 5.136832 5.637151 16.666239 25.189416 -16.943369 38.309715 -1.229122 -9.683550 1.282758 -0.250280 0.636910 0.158790 -0.446953 -11.750841 -8.383742 13.894858 -1.848338 75.680885 -16.916967 22.140699 -13.435974 4.052119 5.265474 -20.495850 5.848094 -0.363000 24.790797 -5.954480 1.919110 10.278540 29.679666 12.808265 -7.346683 41.899719 14.936818 4.367298 21.689962 -6.642181 0.775145 -6.432138 3.394181 -0.192250 0.577520 -0.606490 -0.092960 -37.527343 3.805487 14.204341 -29.594528 -12.314203 -4.391980 -26.560190 -20.344293 1.279872 3.833375 -1.078169 -0.307740 -0.026220 0.321160 -0.095950 
-1.356680 16.541540 -4.986520 -13.363712 -15.306725 -37.261752 -16.153092 16.148867 1.810400 2.231595 3.788899 -11.714458 21.704907 2.695046 61.549024 1.413465 11.170852 1.038271 -0.380120 -0.720200 -0.125520 17.487438 -8.259839 3.363980 4.937422 5.671709 17.147275 25.321737 -17.090157 38.403524 -1.248940 -9.732600 1.261851 -0.243570 0.639270 0.151350 -0.578573 -11.434789 -8.319848 13.978549 -2.400667 75.832185 -16.842545 20.851819 -12.489309 4.148135 5.112960 -20.077150 5.656812 -0.190490 24.752478 -5.946640 2.058480 9.460800 29.757590 12.562146 -7.128336 41.881231 16.269049 4.784901 21.912072 -6.825628 0.768229 -6.440999 3.338586 -0.148740 0.571740 -0.602280 -0.107910 -38.041954 4.552466 14.239333 -29.087507 -11.679321 -5.566889 -27.093804 -22.225050 1.570580 4.007594 -0.982397 -0.342520 0.004700 0.337230 -0.121630 
-1.374100 16.544320 -4.990350 -13.184126 -14.882539 -38.160749 -16.102915 16.117295 1.809250 2.124292 3.933208 -10.788788 22.037901 2.508549 60.885390 1.376321 11.092562 1.061442 -0.403270 -0.754950 -0.126710 17.512163 -8.352845 3.434529 4.779223 5.515341 18.026183 25.622570 -17.180798 38.025550 -1.263784 -9.746266 1.249182 -0.257520 0.635430 0.133440 -0.728178 -11.042822 -8.243964 14.504695 -3.399173 76.259152 -17.484541 19.662265 -11.858327 4.094572 5.054790 -19.812701 5.689802 -0.345964 25.044647 -5.570190 1.765040 9.126350 29.745905 11.483729 -6.453319 42.215283 18.140793 5.366020 21.809284 -6.572086 0.775275 -6.368576 3.250601 -0.112060 0.550150 -0.595970 -0.123720 -38.314244 5.849195 14.257367 -28.911478 -11.597770 -6.891738 -27.402170 -24.179473 1.898592 4.227992 -0.856626 -0.369640 0.027720 0.356900 -0.134100 
-1.387760 16.551590 -4.985570 -13.347886 -14.587510 -37.782863 -16.090805 16.111549 1.824555 2.042406 3.850195 -11.351743 22.514665 2.114053 60.562109 1.364662 11.030496 1.082031 -0.400230 -0.758340 -0.119550 17.516182 -8.368651 3.467651 5.088643 5.387846 17.778897 25.394830 -16.954914 37.739891 -1.250784 -9.662288 1.285598 -0.264440 0.625940 0.120840 -0.784307 -10.849301 -8.233223 14.569917 -3.912889 76.033890 -18.128311 19.781296 -12.788109 4.293379 4.857536 -19.889375 5.621620 -0.832721 25.422257 -5.517380 1.362360 9.324920 29.203519 11.216489 -6.490568 42.923763 17.958916 5.664922 22.364123 -6.477074 0.833425 -6.297159 3.220728 -0.101040 0.536870 -0.591820 -0.118930 -38.190415 6.533179 14.400386 -28.802814 -11.588838 -7.302136 -27.804355 -25.009094 2.179607 4.283312 -0.843363 -0.372460 0.032660 0.346290 -0.136550 
-1.406400 16.568200 -4.979220 -12.913729 -13.918135 -37.830338 -16.079109 16.092792 1.868564 1.472194 3.819637 -11.293483 22.816284 1.904376 60.154071 1.380984 10.938558 1.109644 -0.423570 -0.772800 -0.150120 17.515114 -8.415146 3.463991 4.735003 5.181783 17.995121 25.119896 -16.659564 37.089895 -1.232650 -9.542137 1.336582 -0.296420 0.615290 0.107900 -0.838458 -10.617277 -8.233006 13.777106 -3.917940 76.103874 -18.531381 20.131745 -13.899480 4.186206 4.867514 -20.288512 5.750063 -1.441046 26.296131 -4.993410 0.572400 9.410600 29.193078 10.610199 -5.853540 42.455602 18.519716 5.475109 23.872573 -6.467643 0.948567 -6.275313 3.180767 -0.080890 0.510050 -0.571890 -0.118870 -37.944966 7.331903 14.766864 -28.478725 -11.931220 -7.713882 -28.819068 -25.671805 2.686143 4.369170 -0.804449 -0.362280 0.039490 0.353650 -0.121860 
